The Back-Up Plan*2010*[BluRay][720p][ENG, POL]

General information:
Country: USA
Release Date: 23 April 2010
Genre: Comedy, Romance
Director: Alan Poul
Screenplay: Kate Angelo
Original Music by Stephen Trask
Cinematography by Xavier Perez Grobet
Duration: 1h 44mn
Language: English, Polish
Subtitles: English, Polish
Rating: 6.5/10 - 1016 votes

Cast:
Jennifer Lopez ...  Zoe 
Alex O'Loughlin ...  Stan 
Michaela Watkins ...  Mona 
Eric Christian Olsen ...  Clive 
Anthony Anderson ...  Playground Dad 
Noureen DeWulf ...  Daphne 
Melissa McCarthy ...  Carol 
Tom Bosley ...  Arthur 
Maribeth Monroe ...  Lori 
Danneel Harris ...  Olivia 
Robert Klein ...  Dr. Scott Harris 
Linda Lavin ...  Nana 
Carlease Burke ...  Tabitha 
Amy Block ...  Sara 
Jennifer Elise Cox ...  Baby Store Sales Clerk 

Plot:
A romantic comedy centered on a woman who conceives twins through artificial insemination, only to meet the man of her dreams on the very same day.

Specifications:
General
Format                           : Matroska
Overall bit rate                 : 6 374 Kbps

Video
Format                           : AVC
Format/Info                      : Advanced Video Codec
Format profile                   : High@L4.1
Format settings, CABAC           : Yes
Format settings, ReFrames        : 12 frames
Muxing mode                      : Container profile=Unknown@4.1
Codec ID                         : V_MPEG4/ISO/AVC
Bit rate                         : 5 363 Kbps
Width                            : 1 280 pixels
Height                           : 544 pixels
Display aspect ratio             : 2.35:1
Frame rate                       : 23.976 fps

Audio 1
Format                           : AC-3
Format/Info                      : Audio Coding 3
Mode extension                   : CM (complete main)
Codec ID                         : A_AC3
Bit rate mode                    : Constant
Bit rate                         : 640 Kbps
Channel(s)                       : 6 channels
Channel positions                : Front: L C R, Side: L R, LFE
Sampling rate                    : 48.0 KHz
Stream size                      : 477 MiB (10%)
Title                            : English

Audio 2
Format                           : AC-3
Format/Info                      : Audio Coding 3
Mode extension                   : CM (complete main)
Codec ID                         : A_AC3
Bit rate mode                    : Constant
Bit rate                         : 384 Kbps
Channel(s)                       : 6 channels
Channel positions                : Front: L C R, Side: L R, LFE
Sampling rate                    : 48.0 KHz
Stream size                      : 286 MiB (6%)
Title                            : Polish
Language                         : Polish

Text 
Format                           : UTF-8
Codec ID                         : S_TEXT/UTF8
Codec ID/Info                    : UTF-8 Plain Text
